<svg xmlns="http://www.w3.org/2000/svg" xmlns:xlink="http://www.w3.org/1999/xlink" contentStyleType="text/css" data-diagram-type="CLASS" height="535px" preserveAspectRatio="none" style="width:2648px;height:535px;background:#FFFFFF;" version="1.1" viewBox="0 0 2648 535" width="2648px" zoomAndPan="magnify"><defs/><g><!--cluster handlers--><g class="cluster" data-entity="handlers" data-source-line="27" data-uid="ent0020" id="cluster_handlers"><path d="M1373.5,198 L1443.4336,198 A3.75,3.75 0 0 1 1445.9336,200.5 L1452.9336,220.2969 L2638.5,220.2969 A2.5,2.5 0 0 1 2641,222.7969 L2641,525.5 A2.5,2.5 0 0 1 2638.5,528 L1373.5,528 A2.5,2.5 0 0 1 1371,525.5 L1371,200.5 A2.5,2.5 0 0 1 1373.5,198" fill="none" style="stroke:#000000;stroke-width:1.5;"/><line style="stroke:#000000;stroke-width:1.5;" x1="1371" x2="1452.9336" y1="220.2969" y2="220.2969"/><text fill="#000000" font-family="sans-serif" font-size="14" font-weight="bold" lengthAdjust="spacing" textLength="68.9336" x="1375" y="212.9951">handlers</text></g><!--class StreamHandler--><g class="entity" data-entity="StreamHandler" data-source-line="28" data-uid="ent0021" id="entity_StreamHandler"><rect fill="#F1F1F1" height="80.5938" rx="2.5" ry="2.5" style="stroke:#181818;stroke-width:0.5;" width="389.2754" x="1600.5" y="233"/><ellipse cx="1737.8442" cy="249" fill="#A9DCDF" rx="11" ry="11" style="stroke:#181818;stroke-width:1;"/><path d="M1737.9536,244.3438 L1736.7974,249.4219 L1739.1255,249.4219 L1737.9536,244.3438 Z M1736.4692,242.1094 L1739.4536,242.1094 L1742.813,254.5 L1740.3599,254.5 L1739.5942,251.4375 L1736.313,251.4375 L1735.563,254.5 L1733.1255,254.5 L1736.4692,242.1094 Z " fill="#000000"/><text fill="#000000" font-family="sans-serif" font-size="14" font-style="italic" lengthAdjust="spacing" textLength="106.0869" x="1758.3442" y="253.8467">StreamHandler</text><line style="stroke:#181818;stroke-width:0.5;" x1="1601.5" x2="1988.7754" y1="265" y2="265"/><line style="stroke:#181818;stroke-width:0.5;" x1="1601.5" x2="1988.7754" y1="273" y2="273"/><text fill="#000000" font-family="sans-serif" font-size="14" font-style="italic" lengthAdjust="spacing" textLength="288.0254" x="1606.5" y="289.9951">+handle(stream: TextIO): Mapping or list</text><text fill="#000000" font-family="sans-serif" font-size="14" font-style="italic" lengthAdjust="spacing" textLength="377.2754" x="1606.5" y="306.292">+write(configuration: Mapping or list, stream: TextIO)</text></g><!--class JsonHandler--><g class="entity" data-entity="JsonHandler" data-source-line="33" data-uid="ent0022" id="entity_JsonHandler"><rect fill="#F1F1F1" height="80.5938" rx="2.5" ry="2.5" style="stroke:#181818;stroke-width:0.5;" width="389.2754" x="2235.5" y="431"/><ellipse cx="2383.8945" cy="447" fill="#ADD1B2" rx="11" ry="11" style="stroke:#181818;stroke-width:1;"/><path d="M2386.8633,452.6406 Q2386.2852,452.9375 2385.6445,453.0781 Q2385.0039,453.2344 2384.3008,453.2344 Q2381.8008,453.2344 2380.4727,451.5938 Q2379.1602,449.9375 2379.1602,446.8125 Q2379.1602,443.6875 2380.4727,442.0313 Q2381.8008,440.375 2384.3008,440.375 Q2385.0039,440.375 2385.6445,440.5313 Q2386.3008,440.6875 2386.8633,440.9844 L2386.8633,443.7031 Q2386.2383,443.125 2385.6445,442.8594 Q2385.0508,442.5781 2384.4258,442.5781 Q2383.082,442.5781 2382.3945,443.6563 Q2381.707,444.7188 2381.707,446.8125 Q2381.707,448.9063 2382.3945,449.9844 Q2383.082,451.0469 2384.4258,451.0469 Q2385.0508,451.0469 2385.6445,450.7813 Q2386.2383,450.5 2386.8633,449.9219 L2386.8633,452.6406 Z " fill="#000000"/><text fill="#000000" font-family="sans-serif" font-size="14" lengthAdjust="spacing" textLength="83.9863" x="2404.3945" y="451.8467">JsonHandler</text><line style="stroke:#181818;stroke-width:0.5;" x1="2236.5" x2="2623.7754" y1="463" y2="463"/><line style="stroke:#181818;stroke-width:0.5;" x1="2236.5" x2="2623.7754" y1="471" y2="471"/><text fill="#000000" font-family="sans-serif" font-size="14" lengthAdjust="spacing" textLength="288.0254" x="2241.5" y="487.9951">+handle(stream: TextIO): Mapping or list</text><text fill="#000000" font-family="sans-serif" font-size="14" lengthAdjust="spacing" textLength="377.2754" x="2241.5" y="504.292">+write(configuration: Mapping or list, stream: TextIO)</text></g><!--class XmlHandler--><g class="entity" data-entity="XmlHandler" data-source-line="38" data-uid="ent0024" id="entity_XmlHandler"><rect fill="#F1F1F1" height="80.5938" rx="2.5" ry="2.5" style="stroke:#181818;stroke-width:0.5;" width="389.2754" x="1387.5" y="431"/><ellipse cx="1536.7661" cy="447" fill="#ADD1B2" rx="11" ry="11" style="stroke:#181818;stroke-width:1;"/><path d="M1539.7349,452.6406 Q1539.1567,452.9375 1538.5161,453.0781 Q1537.8755,453.2344 1537.1724,453.2344 Q1534.6724,453.2344 1533.3442,451.5938 Q1532.0317,449.9375 1532.0317,446.8125 Q1532.0317,443.6875 1533.3442,442.0313 Q1534.6724,440.375 1537.1724,440.375 Q1537.8755,440.375 1538.5161,440.5313 Q1539.1724,440.6875 1539.7349,440.9844 L1539.7349,443.7031 Q1539.1099,443.125 1538.5161,442.8594 Q1537.9224,442.5781 1537.2974,442.5781 Q1535.9536,442.5781 1535.2661,443.6563 Q1534.5786,444.7188 1534.5786,446.8125 Q1534.5786,448.9063 1535.2661,449.9844 Q1535.9536,451.0469 1537.2974,451.0469 Q1537.9224,451.0469 1538.5161,450.7813 Q1539.1099,450.5 1539.7349,449.9219 L1539.7349,452.6406 Z " fill="#000000"/><text fill="#000000" font-family="sans-serif" font-size="14" lengthAdjust="spacing" textLength="82.2432" x="1557.2661" y="451.8467">XmlHandler</text><line style="stroke:#181818;stroke-width:0.5;" x1="1388.5" x2="1775.7754" y1="463" y2="463"/><line style="stroke:#181818;stroke-width:0.5;" x1="1388.5" x2="1775.7754" y1="471" y2="471"/><text fill="#000000" font-family="sans-serif" font-size="14" lengthAdjust="spacing" textLength="288.0254" x="1393.5" y="487.9951">+handle(stream: TextIO): Mapping or list</text><text fill="#000000" font-family="sans-serif" font-size="14" lengthAdjust="spacing" textLength="377.2754" x="1393.5" y="504.292">+write(configuration: Mapping or list, stream: TextIO)</text></g><!--class YamlHandler--><g class="entity" data-entity="YamlHandler" data-source-line="43" data-uid="ent0026" id="entity_YamlHandler"><rect fill="#F1F1F1" height="80.5938" rx="2.5" ry="2.5" style="stroke:#181818;stroke-width:0.5;" width="389.2754" x="1811.5" y="431"/><ellipse cx="1956.9961" cy="447" fill="#ADD1B2" rx="11" ry="11" style="stroke:#181818;stroke-width:1;"/><path d="M1959.9648,452.6406 Q1959.3867,452.9375 1958.7461,453.0781 Q1958.1055,453.2344 1957.4023,453.2344 Q1954.9023,453.2344 1953.5742,451.5938 Q1952.2617,449.9375 1952.2617,446.8125 Q1952.2617,443.6875 1953.5742,442.0313 Q1954.9023,440.375 1957.4023,440.375 Q1958.1055,440.375 1958.7461,440.5313 Q1959.4023,440.6875 1959.9648,440.9844 L1959.9648,443.7031 Q1959.3398,443.125 1958.7461,442.8594 Q1958.1523,442.5781 1957.5273,442.5781 Q1956.1836,442.5781 1955.4961,443.6563 Q1954.8086,444.7188 1954.8086,446.8125 Q1954.8086,448.9063 1955.4961,449.9844 Q1956.1836,451.0469 1957.5273,451.0469 Q1958.1523,451.0469 1958.7461,450.7813 Q1959.3398,450.5 1959.9648,449.9219 L1959.9648,452.6406 Z " fill="#000000"/><text fill="#000000" font-family="sans-serif" font-size="14" lengthAdjust="spacing" textLength="89.7832" x="1977.4961" y="451.8467">YamlHandler</text><line style="stroke:#181818;stroke-width:0.5;" x1="1812.5" x2="2199.7754" y1="463" y2="463"/><line style="stroke:#181818;stroke-width:0.5;" x1="1812.5" x2="2199.7754" y1="471" y2="471"/><text fill="#000000" font-family="sans-serif" font-size="14" lengthAdjust="spacing" textLength="288.0254" x="1817.5" y="487.9951">+handle(stream: TextIO): Mapping or list</text><text fill="#000000" font-family="sans-serif" font-size="14" lengthAdjust="spacing" textLength="377.2754" x="1817.5" y="504.292">+write(configuration: Mapping or list, stream: TextIO)</text></g><!--class JsonRef--><g class="entity" data-entity="JsonRef" data-source-line="3" data-uid="ent0002" id="entity_JsonRef"><rect fill="#F1F1F1" height="64.2969" rx="2.5" ry="2.5" style="stroke:#181818;stroke-width:0.5;" width="420.0781" x="7" y="241.5"/><ellipse cx="186.7236" cy="257.5" fill="#ADD1B2" rx="11" ry="11" style="stroke:#181818;stroke-width:1;"/><path d="M189.6924,263.1406 Q189.1143,263.4375 188.4736,263.5781 Q187.833,263.7344 187.1299,263.7344 Q184.6299,263.7344 183.3018,262.0938 Q181.9893,260.4375 181.9893,257.3125 Q181.9893,254.1875 183.3018,252.5313 Q184.6299,250.875 187.1299,250.875 Q187.833,250.875 188.4736,251.0313 Q189.1299,251.1875 189.6924,251.4844 L189.6924,254.2031 Q189.0674,253.625 188.4736,253.3594 Q187.8799,253.0781 187.2549,253.0781 Q185.9111,253.0781 185.2236,254.1563 Q184.5361,255.2188 184.5361,257.3125 Q184.5361,259.4063 185.2236,260.4844 Q185.9111,261.5469 187.2549,261.5469 Q187.8799,261.5469 188.4736,261.2813 Q189.0674,261 189.6924,260.4219 L189.6924,263.1406 Z " fill="#000000"/><text fill="#000000" font-family="sans-serif" font-size="14" lengthAdjust="spacing" textLength="52.1309" x="207.2236" y="262.3467">JsonRef</text><line style="stroke:#181818;stroke-width:0.5;" x1="8" x2="426.0781" y1="273.5" y2="273.5"/><line style="stroke:#181818;stroke-width:0.5;" x1="8" x2="426.0781" y1="281.5" y2="281.5"/><text fill="#000000" font-family="sans-serif" font-size="14" lengthAdjust="spacing" textLength="408.0781" x="13" y="298.4951">+replace_refs(config: Mapping, loader: Callable): Mapping</text></g><!--class ConfigMate--><g class="entity" data-entity="ConfigMate" data-source-line="7" data-uid="ent0003" id="entity_ConfigMate"><rect fill="#F1F1F1" height="194.6719" rx="2.5" ry="2.5" style="stroke:#181818;stroke-width:0.5;" width="892.749" x="462.5" y="176"/><ellipse cx="864.7847" cy="192" fill="#ADD1B2" rx="11" ry="11" style="stroke:#181818;stroke-width:1;"/><path d="M867.7534,197.6406 Q867.1753,197.9375 866.5347,198.0781 Q865.894,198.2344 865.1909,198.2344 Q862.6909,198.2344 861.3628,196.5938 Q860.0503,194.9375 860.0503,191.8125 Q860.0503,188.6875 861.3628,187.0313 Q862.6909,185.375 865.1909,185.375 Q865.894,185.375 866.5347,185.5313 Q867.1909,185.6875 867.7534,185.9844 L867.7534,188.7031 Q867.1284,188.125 866.5347,187.8594 Q865.9409,187.5781 865.3159,187.5781 Q863.9722,187.5781 863.2847,188.6563 Q862.5972,189.7188 862.5972,191.8125 Q862.5972,193.9063 863.2847,194.9844 Q863.9722,196.0469 865.3159,196.0469 Q865.9409,196.0469 866.5347,195.7813 Q867.1284,195.5 867.7534,194.9219 L867.7534,197.6406 Z " fill="#000000"/><text fill="#000000" font-family="sans-serif" font-size="14" lengthAdjust="spacing" textLength="79.6797" x="885.2847" y="196.8467">ConfigMate</text><line style="stroke:#181818;stroke-width:0.5;" x1="463.5" x2="1354.249" y1="208" y2="208"/><text fill="#000000" font-family="sans-serif" font-size="14" lengthAdjust="spacing" textLength="114.4063" x="468.5" y="224.9951">session: Session</text><text fill="#000000" font-family="sans-serif" font-size="14" lengthAdjust="spacing" textLength="343.9775" x="468.5" y="241.292">handlers: dict[ContentType | str, StreamHandler]</text><line style="stroke:#181818;stroke-width:0.5;" x1="463.5" x2="1354.249" y1="248.5938" y2="248.5938"/><text fill="#000000" font-family="sans-serif" font-size="14" lengthAdjust="spacing" textLength="372.0869" x="468.5" y="265.5889">+mount_session(scheme: str, adapter: BaseAdapter)</text><text fill="#000000" font-family="sans-serif" font-size="14" lengthAdjust="spacing" textLength="529.4023" x="468.5" y="281.8857">+mount_handler(content_type: ContentType | str, handler: StreamHandler)</text><text fill="#000000" font-family="sans-serif" font-size="14" lengthAdjust="spacing" textLength="513.3926" x="468.5" y="298.1826">+load_config_from_dict(config_dict: Mapping, base_uri: str = ''): Mapping</text><text fill="#000000" font-family="sans-serif" font-size="14" lengthAdjust="spacing" textLength="880.749" x="468.5" y="314.4795">+load_config_from_stream(config_stream: TextIO, content_type: ContentType | str = YAML, base_uri: str = ''): Mapping or list</text><text fill="#000000" font-family="sans-serif" font-size="14" lengthAdjust="spacing" textLength="829.5068" x="468.5" y="330.7764">+load_config_from_content(config_content: str, content_type: ContentType = YAML, base_uri: str = ''): Mapping or list</text><text fill="#000000" font-family="sans-serif" font-size="14" lengthAdjust="spacing" textLength="450.9805" x="468.5" y="347.0732">+load_config_from_location(config_location: str): Mapping or list</text><text fill="#000000" font-family="sans-serif" font-size="14" lengthAdjust="spacing" textLength="690.7988" x="468.5" y="363.3701">+dump_config(configuration: Mapping or list, stream: TextIO, content_type: ContentType = YAML)</text></g><!--class FileAdapter--><g class="entity" data-entity="FileAdapter" data-source-line="20" data-uid="ent0004" id="entity_FileAdapter"><rect fill="#F1F1F1" height="48" rx="2.5" ry="2.5" style="stroke:#181818;stroke-width:0.5;" width="112.2334" x="1074" y="7"/><ellipse cx="1089" cy="23" fill="#ADD1B2" rx="11" ry="11" style="stroke:#181818;stroke-width:1;"/><path d="M1091.9688,28.6406 Q1091.3906,28.9375 1090.75,29.0781 Q1090.1094,29.2344 1089.4063,29.2344 Q1086.9063,29.2344 1085.5781,27.5938 Q1084.2656,25.9375 1084.2656,22.8125 Q1084.2656,19.6875 1085.5781,18.0313 Q1086.9063,16.375 1089.4063,16.375 Q1090.1094,16.375 1090.75,16.5313 Q1091.4063,16.6875 1091.9688,16.9844 L1091.9688,19.7031 Q1091.3438,19.125 1090.75,18.8594 Q1090.1563,18.5781 1089.5313,18.5781 Q1088.1875,18.5781 1087.5,19.6563 Q1086.8125,20.7188 1086.8125,22.8125 Q1086.8125,24.9063 1087.5,25.9844 Q1088.1875,27.0469 1089.5313,27.0469 Q1090.1563,27.0469 1090.75,26.7813 Q1091.3438,26.5 1091.9688,25.9219 L1091.9688,28.6406 Z " fill="#000000"/><text fill="#000000" font-family="sans-serif" font-size="14" lengthAdjust="spacing" textLength="80.2334" x="1103" y="27.8467">FileAdapter</text><line style="stroke:#181818;stroke-width:0.5;" x1="1075" x2="1185.2334" y1="39" y2="39"/><line style="stroke:#181818;stroke-width:0.5;" x1="1075" x2="1185.2334" y1="47" y2="47"/></g><!--class OCIAdapter--><g class="entity" data-entity="OCIAdapter" data-source-line="21" data-uid="ent0007" id="entity_OCIAdapter"><rect fill="#F1F1F1" height="48" rx="2.5" ry="2.5" style="stroke:#181818;stroke-width:0.5;" width="112.7119" x="925.5" y="7"/><ellipse cx="940.5" cy="23" fill="#ADD1B2" rx="11" ry="11" style="stroke:#181818;stroke-width:1;"/><path d="M943.4688,28.6406 Q942.8906,28.9375 942.25,29.0781 Q941.6094,29.2344 940.9063,29.2344 Q938.4063,29.2344 937.0781,27.5938 Q935.7656,25.9375 935.7656,22.8125 Q935.7656,19.6875 937.0781,18.0313 Q938.4063,16.375 940.9063,16.375 Q941.6094,16.375 942.25,16.5313 Q942.9063,16.6875 943.4688,16.9844 L943.4688,19.7031 Q942.8438,19.125 942.25,18.8594 Q941.6563,18.5781 941.0313,18.5781 Q939.6875,18.5781 939,19.6563 Q938.3125,20.7188 938.3125,22.8125 Q938.3125,24.9063 939,25.9844 Q939.6875,27.0469 941.0313,27.0469 Q941.6563,27.0469 942.25,26.7813 Q942.8438,26.5 943.4688,25.9219 L943.4688,28.6406 Z " fill="#000000"/><text fill="#000000" font-family="sans-serif" font-size="14" lengthAdjust="spacing" textLength="80.7119" x="954.5" y="27.8467">OCIAdapter</text><line style="stroke:#181818;stroke-width:0.5;" x1="926.5" x2="1037.2119" y1="39" y2="39"/><line style="stroke:#181818;stroke-width:0.5;" x1="926.5" x2="1037.2119" y1="47" y2="47"/></g><!--class S3Adapter--><g class="entity" data-entity="S3Adapter" data-source-line="22" data-uid="ent0010" id="entity_S3Adapter"><rect fill="#F1F1F1" height="48" rx="2.5" ry="2.5" style="stroke:#181818;stroke-width:0.5;" width="105.582" x="784" y="7"/><ellipse cx="799" cy="23" fill="#ADD1B2" rx="11" ry="11" style="stroke:#181818;stroke-width:1;"/><path d="M801.9688,28.6406 Q801.3906,28.9375 800.75,29.0781 Q800.1094,29.2344 799.4063,29.2344 Q796.9063,29.2344 795.5781,27.5938 Q794.2656,25.9375 794.2656,22.8125 Q794.2656,19.6875 795.5781,18.0313 Q796.9063,16.375 799.4063,16.375 Q800.1094,16.375 800.75,16.5313 Q801.4063,16.6875 801.9688,16.9844 L801.9688,19.7031 Q801.3438,19.125 800.75,18.8594 Q800.1563,18.5781 799.5313,18.5781 Q798.1875,18.5781 797.5,19.6563 Q796.8125,20.7188 796.8125,22.8125 Q796.8125,24.9063 797.5,25.9844 Q798.1875,27.0469 799.5313,27.0469 Q800.1563,27.0469 800.75,26.7813 Q801.3438,26.5 801.9688,25.9219 L801.9688,28.6406 Z " fill="#000000"/><text fill="#000000" font-family="sans-serif" font-size="14" lengthAdjust="spacing" textLength="73.582" x="813" y="27.8467">S3Adapter</text><line style="stroke:#181818;stroke-width:0.5;" x1="785" x2="888.582" y1="39" y2="39"/><line style="stroke:#181818;stroke-width:0.5;" x1="785" x2="888.582" y1="47" y2="47"/></g><!--class HTTPAdapter--><g class="entity" data-entity="HTTPAdapter" data-source-line="23" data-uid="ent0013" id="entity_HTTPAdapter"><rect fill="#F1F1F1" height="48" rx="2.5" ry="2.5" style="stroke:#181818;stroke-width:0.5;" width="123.8613" x="625" y="7"/><ellipse cx="640" cy="23" fill="#ADD1B2" rx="11" ry="11" style="stroke:#181818;stroke-width:1;"/><path d="M642.9688,28.6406 Q642.3906,28.9375 641.75,29.0781 Q641.1094,29.2344 640.4063,29.2344 Q637.9063,29.2344 636.5781,27.5938 Q635.2656,25.9375 635.2656,22.8125 Q635.2656,19.6875 636.5781,18.0313 Q637.9063,16.375 640.4063,16.375 Q641.1094,16.375 641.75,16.5313 Q642.4063,16.6875 642.9688,16.9844 L642.9688,19.7031 Q642.3438,19.125 641.75,18.8594 Q641.1563,18.5781 640.5313,18.5781 Q639.1875,18.5781 638.5,19.6563 Q637.8125,20.7188 637.8125,22.8125 Q637.8125,24.9063 638.5,25.9844 Q639.1875,27.0469 640.5313,27.0469 Q641.1563,27.0469 641.75,26.7813 Q642.3438,26.5 642.9688,25.9219 L642.9688,28.6406 Z " fill="#000000"/><text fill="#000000" font-family="sans-serif" font-size="14" lengthAdjust="spacing" textLength="91.8613" x="654" y="27.8467">HTTPAdapter</text><line style="stroke:#181818;stroke-width:0.5;" x1="626" x2="747.8613" y1="39" y2="39"/><line style="stroke:#181818;stroke-width:0.5;" x1="626" x2="747.8613" y1="47" y2="47"/></g><!--class ContentType--><g class="entity" data-entity="ContentType" data-source-line="25" data-uid="ent0018" id="entity_ContentType"><rect fill="#F1F1F1" height="48" rx="2.5" ry="2.5" style="stroke:#181818;stroke-width:0.5;" width="122.0156" x="848" y="447.5"/><ellipse cx="863" cy="463.5" fill="#ADD1B2" rx="11" ry="11" style="stroke:#181818;stroke-width:1;"/><path d="M865.9688,469.1406 Q865.3906,469.4375 864.75,469.5781 Q864.1094,469.7344 863.4063,469.7344 Q860.9063,469.7344 859.5781,468.0938 Q858.2656,466.4375 858.2656,463.3125 Q858.2656,460.1875 859.5781,458.5313 Q860.9063,456.875 863.4063,456.875 Q864.1094,456.875 864.75,457.0313 Q865.4063,457.1875 865.9688,457.4844 L865.9688,460.2031 Q865.3438,459.625 864.75,459.3594 Q864.1563,459.0781 863.5313,459.0781 Q862.1875,459.0781 861.5,460.1563 Q860.8125,461.2188 860.8125,463.3125 Q860.8125,465.4063 861.5,466.4844 Q862.1875,467.5469 863.5313,467.5469 Q864.1563,467.5469 864.75,467.2813 Q865.3438,467 865.9688,466.4219 L865.9688,469.1406 Z " fill="#000000"/><text fill="#000000" font-family="sans-serif" font-size="14" lengthAdjust="spacing" textLength="90.0156" x="877" y="468.3467">ContentType</text><line style="stroke:#181818;stroke-width:0.5;" x1="849" x2="969.0156" y1="479.5" y2="479.5"/><line style="stroke:#181818;stroke-width:0.5;" x1="849" x2="969.0156" y1="487.5" y2="487.5"/></g><!--reverse link FileAdapter to ConfigMate--><g class="link" data-entity-1="FileAdapter" data-entity-2="ConfigMate" data-source-line="20" data-uid="lnk6" id="link_FileAdapter_ConfigMate"><path codeLine="20" d="M1104.7503,59.4781 C1079.1503,87.3381 1038.49,131.58 997.85,175.81" fill="none" id="FileAdapter-backto-ConfigMate" style="stroke:#181818;stroke-width:1;"/><polygon fill="#181818" points="1108.81,55.06,1099.7751,58.9806,1105.427,58.7417,1105.6659,64.3935,1108.81,55.06" style="stroke:#181818;stroke-width:1;"/></g><!--reverse link OCIAdapter to ConfigMate--><g class="link" data-entity-1="OCIAdapter" data-entity-2="ConfigMate" data-source-line="21" data-uid="lnk9" id="link_OCIAdapter_ConfigMate"><path codeLine="21" d="M973.2566,60.8011 C964.7966,88.6611 951.77,131.58 938.35,175.81" fill="none" id="OCIAdapter-backto-ConfigMate" style="stroke:#181818;stroke-width:1;"/><polygon fill="#181818" points="975,55.06,968.5575,62.5095,973.5472,59.8443,976.2124,64.834,975,55.06" style="stroke:#181818;stroke-width:1;"/></g><!--reverse link S3Adapter to ConfigMate--><g class="link" data-entity-1="S3Adapter" data-entity-2="ConfigMate" data-source-line="22" data-uid="lnk12" id="link_S3Adapter_ConfigMate"><path codeLine="22" d="M845.6226,60.8074 C853.9726,88.6674 866.81,131.58 880.05,175.81" fill="none" id="S3Adapter-backto-ConfigMate" style="stroke:#181818;stroke-width:1;"/><polygon fill="#181818" points="843.9,55.06,842.6523,64.8295,845.3355,59.8495,850.3155,62.5327,843.9,55.06" style="stroke:#181818;stroke-width:1;"/></g><!--reverse link HTTPAdapter to ConfigMate--><g class="link" data-entity-1="HTTPAdapter" data-entity-2="ConfigMate" data-source-line="23" data-uid="lnk15" id="link_HTTPAdapter_ConfigMate"><path codeLine="23" d="M712.3599,59.4686 C738.0799,87.3286 778.92,131.58 819.75,175.81" fill="none" id="HTTPAdapter-backto-ConfigMate" style="stroke:#181818;stroke-width:1;"/><polygon fill="#181818" points="708.29,55.06,711.4559,64.3862,711.6816,58.7338,717.334,58.9596,708.29,55.06" style="stroke:#181818;stroke-width:1;"/></g><!--reverse link JsonRef to ConfigMate--><g class="link" data-entity-1="JsonRef" data-entity-2="ConfigMate" data-source-line="24" data-uid="lnk17" id="link_JsonRef_ConfigMate"><path codeLine="24" d="M433.17,273.5 C444.93,273.5 450.69,273.5 462.46,273.5" fill="none" id="JsonRef-backto-ConfigMate" style="stroke:#181818;stroke-width:1;"/><polygon fill="#181818" points="427.17,273.5,436.17,277.5,432.17,273.5,436.17,269.5,427.17,273.5" style="stroke:#181818;stroke-width:1;"/></g><!--link ConfigMate to ContentType--><g class="link" data-entity-1="ConfigMate" data-entity-2="ContentType" data-source-line="25" data-uid="lnk19" id="link_ConfigMate_ContentType"><path codeLine="25" d="M909,371.06 C909,399.47 909,422.04 909,441.22" fill="none" id="ConfigMate-to-ContentType" style="stroke:#181818;stroke-width:1;"/><polygon fill="#181818" points="909,447.22,913,438.22,909,442.22,905,438.22,909,447.22" style="stroke:#181818;stroke-width:1;"/></g><!--reverse link StreamHandler to JsonHandler--><g class="link" data-entity-1="StreamHandler" data-entity-2="JsonHandler" data-source-line="34" data-uid="lnk23" id="link_StreamHandler_JsonHandler"><path d="M1940.3194,319.3587 C2050.5394,353.3787 2191.56,396.9 2301.81,430.93" fill="none" id="StreamHandler-backto-JsonHandler" style="stroke:#181818;stroke-width:1;"/><polygon fill="none" points="1923.12,314.05,1938.5498,325.0918,1942.0889,313.6256,1923.12,314.05" style="stroke:#181818;stroke-width:1;"/></g><!--reverse link StreamHandler to XmlHandler--><g class="link" data-entity-1="StreamHandler" data-entity-2="XmlHandler" data-source-line="39" data-uid="lnk25" id="link_StreamHandler_XmlHandler"><path d="M1738.6545,326.3483 C1701.6945,360.3583 1661.98,396.91 1625.04,430.9" fill="none" id="StreamHandler-backto-XmlHandler" style="stroke:#181818;stroke-width:1;"/><polygon fill="none" points="1751.9,314.16,1734.5917,321.9332,1742.7172,330.7635,1751.9,314.16" style="stroke:#181818;stroke-width:1;"/></g><!--reverse link StreamHandler to YamlHandler--><g class="link" data-entity-1="StreamHandler" data-entity-2="YamlHandler" data-source-line="44" data-uid="lnk27" id="link_StreamHandler_YamlHandler"><path d="M1850.8876,326.411 C1887.4976,360.421 1926.78,396.91 1963.36,430.9" fill="none" id="StreamHandler-backto-YamlHandler" style="stroke:#181818;stroke-width:1;"/><polygon fill="none" points="1837.7,314.16,1846.8039,330.8069,1854.9713,322.0152,1837.7,314.16" style="stroke:#181818;stroke-width:1;"/></g><!--link ConfigMate to StreamHandler--><g class="link" data-entity-1="ConfigMate" data-entity-2="StreamHandler" data-source-line="49" data-uid="lnk28" id="link_ConfigMate_StreamHandler"><path codeLine="49" d="M1355.89,273.5 C1437.37,273.5 1512.84,273.5 1594.32,273.5" fill="none" id="ConfigMate-to-StreamHandler" style="stroke:#181818;stroke-width:1;"/><polygon fill="#181818" points="1600.32,273.5,1591.32,269.5,1595.32,273.5,1591.32,277.5,1600.32,273.5" style="stroke:#181818;stroke-width:1;"/></g><!--link ConfigMate to JsonHandler--><g class="link" data-entity-1="ConfigMate" data-entity-2="JsonHandler" data-source-line="50" data-uid="lnk29" id="link_ConfigMate_JsonHandler"><path codeLine="50" d="M1355.7,368.81 C1360.83,369.56 1365.93,370.29 1371,371 C1744.78,423.03 1843.67,383.03 2218,431 C2223.76,431.74 2223.6501,431.6829 2229.5401,432.5229" fill="none" id="ConfigMate-to-JsonHandler" style="stroke:#181818;stroke-width:1;"/><polygon fill="#181818" points="2235.48,433.37,2227.1349,428.1394,2230.5301,432.6641,2226.0054,436.0593,2235.48,433.37" style="stroke:#181818;stroke-width:1;"/></g><!--link ConfigMate to XmlHandler--><g class="link" data-entity-1="ConfigMate" data-entity-2="XmlHandler" data-source-line="51" data-uid="lnk30" id="link_ConfigMate_XmlHandler"><path codeLine="51" d="M1240.57,371.06 C1313.4,392.27 1380.7795,411.8917 1440.5695,429.3117" fill="none" id="ConfigMate-to-XmlHandler" style="stroke:#181818;stroke-width:1;"/><polygon fill="#181818" points="1446.33,430.99,1438.8082,424.6322,1441.5296,429.5914,1436.5704,432.3128,1446.33,430.99" style="stroke:#181818;stroke-width:1;"/></g><!--link ConfigMate to YamlHandler--><g class="link" data-entity-1="ConfigMate" data-entity-2="YamlHandler" data-source-line="52" data-uid="lnk31" id="link_ConfigMate_YamlHandler"><path codeLine="52" d="M1355.78,368.31 C1360.88,369.22 1365.96,370.12 1371,371 C1558.03,403.76 1606.62,400.27 1794,431 C1799.73,431.94 1799.6238,431.9105 1805.4838,432.9005" fill="none" id="ConfigMate-to-YamlHandler" style="stroke:#181818;stroke-width:1;"/><polygon fill="#181818" points="1811.4,433.9,1803.1921,428.4567,1806.4699,433.0671,1801.8594,436.3449,1811.4,433.9" style="stroke:#181818;stroke-width:1;"/></g><!--SRC=[pLHDQ-Cm4BtxLmozDA49BEpDi8Kqi2JBXfOcXvPIpCIUfAAoRAGnxMut_xsI9JVEXtUtq4DziZGpxpqzpSWy2bMYnXnIYSQCcBLOLapJj51pyPlWInJL4VXX2dLDAtY9m7vdcag9AIMQLgPdarTY7SCCorAezG1aWHdf6COe9IubzTzYqQO17DT5CsJoa8QC4OMAOUv_wiq7L9aaRMB8HCftjeP9yU9NIV073Ei1p5aJvXEVTnzvTNbHAKu2Oi-a3vHJxFCnmvATjWiqDFABVhigKBf3EQw4BLaCHvX3Ohmh8M0v1nBlIxBIHPuu_S6e-h_brj8gIIejQeNm3KvFMtuTHpCrPOFdLp4iw9cdbmFuXtHBSJkQ_VmxCHGQf33S8I1GD0h2CdZSpVy1pB98aTsrXircNKDreMHLNWQKK5VfKBMNFu3_TzEVfkzwUjlDCAo6mtFuBcJJNeV1o_6qCpR_sXcQB1PNnuBIni9yxkndTh-bDufAJ1znJN3IpDL9c6TSsbDZoluPsEteaEA-boPl0sSUehVhLeV_-xLFMZ2zyoByO6tyX6_Vf4QapI6LTKj_jzwF4dcJoq-lyHO_gyYzqT9kGDh23gAjdZY8RQ_Y8DHo87e5]--></g></svg>